<?xml version="1.0" standalone="no"?>
<!DOCTYPE svg PUBLIC "-//W3C//DTD SVG 20010904//EN"
 "http://www.w3.org/TR/2001/REC-SVG-20010904/DTD/svg10.dtd">
<svg version="1.0" xmlns="http://www.w3.org/2000/svg"
 width="435.000000pt" height="435.000000pt" viewBox="0 0 435.000000 435.000000"
 preserveAspectRatio="xMidYMid meet">
<metadata>
Created by potrace 1.14, written by Peter Selinger 2001-2017
</metadata>
<g transform="translate(0.000000,435.000000) scale(0.100000,-0.100000)"
fill="#000000" stroke="none">
<path d="M1575 4119 c-316 -7 -325 -8 -325 -20 0 -5 -6 -6 -13 -3 -19 7 -144
-57 -204 -105 -54 -42 -153 -164 -153 -187 0 -8 -4 -14 -10 -14 -5 0 -10 -4
-10 -9 0 -5 -13 -31 -29 -58 -16 -26 -40 -67 -53 -89 -12 -23 -44 -77 -69
-120 -25 -44 -52 -90 -60 -104 -8 -14 -18 -28 -22 -31 -5 -3 -8 -9 -8 -13 1
-3 -5 -16 -12 -29 -29 -47 -73 -123 -92 -159 -11 -21 -23 -38 -27 -38 -5 0 -8
-5 -8 -11 0 -13 -80 -151 -93 -160 -5 -3 -9 -10 -9 -15 0 -8 -26 -54 -103
-182 -5 -9 -25 -44 -44 -77 -19 -33 -39 -63 -45 -67 -6 -4 -7 -8 -2 -8 5 0 2
-8 -6 -17 -31 -37 -107 -191 -128 -261 -31 -103 -30 -230 3 -347 7 -23 49
-112 65 -135 9 -14 17 -27 17 -30 0 -3 8 -16 16 -30 52 -82 99 -160 99 -164 0
-2 18 -34 40 -70 22 -36 40 -70 40 -76 0 -5 4 -10 8 -10 5 0 19 -22 32 -50 13
-27 27 -50 32 -50 4 0 8 -7 8 -15 0 -8 4 -15 8 -15 4 0 13 -12 19 -27 7 -16
25 -50 41 -78 79 -135 136 -233 154 -265 11 -19 29 -47 40 -63 11 -15 16 -27
13 -27 -4 0 1 -7 9 -16 9 -8 16 -22 16 -30 0 -8 5 -14 10 -14 6 0 10 -7 10
-15 0 -8 5 -15 12 -15 6 0 9 -3 5 -6 -3 -4 9 -31 28 -60 19 -30 35 -56 35 -58
0 -9 84 -141 91 -144 5 -2 9 -10 9 -18 0 -19 156 -174 175 -174 8 0 15 -3 15
-7 0 -13 117 -63 185 -79 17 -4 413 -9 882 -10 716 -2 862 0 914 12 35 8 69
20 76 26 7 6 13 8 13 4 0 -6 80 37 125 68 35 24 141 126 131 126 -4 0 2 10 14
22 24 26 120 184 120 197 0 5 5 11 11 13 5 2 11 10 12 19 2 8 13 29 25 46 12
17 22 36 22 41 0 6 6 17 13 24 6 7 21 31 32 53 11 22 23 42 26 45 4 3 17 24
30 48 13 24 29 51 34 60 68 113 95 162 95 170 0 5 7 15 16 22 16 14 48 79 46
93 -1 4 2 7 8 7 5 0 18 15 27 34 42 80 66 121 79 134 8 7 14 18 14 23 0 5 16
33 35 63 19 30 35 60 35 66 0 5 4 10 9 10 5 0 11 8 14 17 3 10 22 45 42 78 19
33 40 70 47 83 6 12 15 22 20 22 5 0 6 5 3 10 -3 6 3 22 14 36 11 15 18 30 15
35 -3 5 -1 9 4 9 9 0 29 72 38 135 10 78 4 215 -10 215 -5 0 -7 3 -3 6 9 10
-71 207 -92 224 -10 9 -41 64 -52 93 -6 15 -15 27 -20 27 -5 0 -9 6 -9 14 0 8
-6 21 -13 28 -7 7 -18 24 -25 38 -7 14 -34 61 -62 105 -27 44 -49 86 -50 93 0
6 -4 12 -10 12 -5 0 -10 7 -10 15 0 8 -5 15 -11 15 -5 0 -8 4 -5 9 3 5 -1 14
-9 21 -8 7 -15 19 -15 26 0 8 -4 14 -10 14 -5 0 -12 11 -16 25 -3 14 -10 25
-16 25 -5 0 -7 4 -4 9 3 4 -3 19 -14 31 -11 12 -22 31 -25 41 -4 11 -11 19
-17 19 -6 0 -8 3 -5 6 4 4 -2 19 -13 34 -11 16 -20 33 -20 39 0 6 -4 11 -10
11 -5 0 -10 6 -10 14 0 8 -7 22 -16 30 -8 9 -12 16 -8 16 4 0 0 8 -8 18 -8 9
-28 42 -44 72 -16 30 -31 57 -34 60 -3 3 -14 22 -25 43 -11 20 -23 37 -28 37
-4 0 -5 5 -2 10 3 6 1 10 -5 10 -6 0 -8 5 -5 10 3 6 1 10 -4 10 -6 0 -11 5
-11 10 0 6 -15 34 -33 63 -18 29 -41 69 -52 90 -11 20 -22 37 -26 37 -3 0 -11
11 -17 25 -14 30 -22 40 -77 98 -48 50 -82 77 -95 77 -6 0 -10 3 -10 8 0 8
-116 65 -145 70 -27 5 -37 8 -55 15 -21 10 -1131 13 -1495 6z"/>
</g>
</svg>
